# xmcd
# Copyright (C) 1995-1998 Ti Kan
#
# Track frame offsets:
#       150
#       18876
#       38793
#       55600
#       73151
#       94033
#       116907
#       138197
#       161794
#       184801
#       203160
#
# Disc length: 2996 seconds
#
# Revision: 0
# Processed by: cddbd v1.5.2PL0 Copyright (c) Steve Scherf et al.
# Submitted via: CD-Import v1.0
#
DISCID=950bb20b
DTITLE=Trisomie 21 - Black Label
DYEAR=2009
DGENRE=
TTITLE0=The Camp
TTITLE1=Glistering Like Gold
TTITLE2=One Minute In The Dream World
TTITLE3=Shakespeare
TTITLE4=Half A Drop
TTITLE5=Hear Me Now
TTITLE6=Sadness Forces
TTITLE7=Shadows Army
TTITLE8=Angels Of Rain
TTITLE9=Outside The Door
TTITLE10=The Lined Hands Of Afternoon
EXTD=
EXTT0=
EXTT1=
EXTT2=
EXTT3=
EXTT4=
EXTT5=
EXTT6=
EXTT7=
EXTT8=
EXTT9=
EXTT10=
PLAYORDER=
